<svg width="18" height="20" viewBox="0 0 18 20" fill="none" xmlns="http://www.w3.org/2000/svg">
<path d="M11.6923 16C11.05 16 10.5048 15.776 10.0568 15.3279C9.60869 14.8798 9.38466 14.3346 9.38466 13.6923C9.38466 13.05 9.60869 12.5048 10.0568 12.0567C10.5048 11.6087 11.05 11.3846 11.6923 11.3846C12.3346 11.3846 12.8798 11.6087 13.3279 12.0567C13.776 12.5048 14 13.05 14 13.6923C14 14.3346 13.776 14.8798 13.3279 15.3279C12.8798 15.776 12.3346 16 11.6923 16ZM2.30773 19.5C1.8026 19.5 1.37503 19.325 1.02503 18.975C0.675031 18.625 0.500031 18.1974 0.500031 17.6923V4.30772C0.500031 3.80258 0.675031 3.37502 1.02503 3.02502C1.37503 2.67502 1.8026 2.50002 2.30773 2.50002H3.69236V1.15384C3.69236 0.934627 3.76576 0.751618 3.91256 0.604818C4.05934 0.458035 4.24235 0.384644 4.46158 0.384644C4.6808 0.384644 4.86381 0.458035 5.01061 0.604818C5.15739 0.751618 5.23078 0.934627 5.23078 1.15384V2.50002H12.8077V1.13462C12.8077 0.921802 12.8795 0.743602 13.0231 0.600019C13.1666 0.456435 13.3448 0.384644 13.5577 0.384644C13.7705 0.384644 13.9487 0.456435 14.0923 0.600019C14.2359 0.743602 14.3077 0.921802 14.3077 1.13462V2.50002H15.6923C16.1974 2.50002 16.625 2.67502 16.975 3.02502C17.325 3.37502 17.5 3.80258 17.5 4.30772V17.6923C17.5 18.1974 17.325 18.625 16.975 18.975C16.625 19.325 16.1974 19.5 15.6923 19.5H2.30773ZM2.30773 18H15.6923C15.782 18 15.8558 17.9711 15.9135 17.9134C15.9712 17.8557 16 17.782 16 17.6923V8.30772H2.00001V17.6923C2.00001 17.782 2.02886 17.8557 2.08656 17.9134C2.14426 17.9711 2.21798 18 2.30773 18ZM2.00001 6.80774H16V4.30772C16 4.21797 15.9712 4.14424 15.9135 4.08654C15.8558 4.02884 15.782 3.99999 15.6923 3.99999H2.30773C2.21798 3.99999 2.14426 4.02884 2.08656 4.08654C2.02886 4.14424 2.00001 4.21797 2.00001 4.30772V6.80774Z" fill="#1DA1F2"/>
</svg>
