<svg width="16" height="16" viewBox="0 0 16 16" fill="none" xmlns="http://www.w3.org/2000/svg">
<path d="M8.00001 7.69228C7.03752 7.69228 6.21357 7.34958 5.52816 6.66418C4.84274 5.97876 4.50003 5.15481 4.50003 4.19233C4.50003 3.22983 4.84274 2.40588 5.52816 1.72048C6.21357 1.03506 7.03752 0.692352 8.00001 0.692352C8.96249 0.692352 9.78644 1.03506 10.4719 1.72048C11.1573 2.40588 11.5 3.22983 11.5 4.19233C11.5 5.15481 11.1573 5.97876 10.4719 6.66418C9.78644 7.34958 8.96249 7.69228 8.00001 7.69228ZM13.9808 15.3077H2.01923C1.59745 15.3077 1.23881 15.1599 0.943305 14.8644C0.647789 14.5689 0.500031 14.2102 0.500031 13.7885V13.0846C0.500031 12.5949 0.633047 12.1414 0.89908 11.7241C1.1651 11.3068 1.52054 10.9859 1.96541 10.7616C2.95387 10.2769 3.95099 9.91348 4.95676 9.67118C5.96252 9.42888 6.97694 9.30773 8.00001 9.30773C9.02307 9.30773 10.0375 9.42888 11.0433 9.67118C12.049 9.91348 13.0461 10.2769 14.0346 10.7616C14.4795 10.9859 14.8349 11.3068 15.1009 11.7241C15.367 12.1414 15.5 12.5949 15.5 13.0846V13.7885C15.5 14.2102 15.3522 14.5689 15.0567 14.8644C14.7612 15.1599 14.4026 15.3077 13.9808 15.3077ZM2.00001 13.8077H14V13.0846C14 12.882 13.9413 12.6945 13.824 12.5221C13.7067 12.3497 13.5474 12.209 13.3462 12.1C12.4846 11.6756 11.6061 11.3542 10.7107 11.1356C9.81527 10.917 8.91171 10.8077 8.00001 10.8077C7.08831 10.8077 6.18474 10.917 5.28931 11.1356C4.39387 11.3542 3.51539 11.6756 2.65386 12.1C2.45257 12.209 2.29328 12.3497 2.17598 12.5221C2.05866 12.6945 2.00001 12.882 2.00001 13.0846V13.8077ZM8.00001 6.19233C8.55001 6.19233 9.02084 5.99649 9.41251 5.60483C9.80417 5.21316 10 4.74233 10 4.19233C10 3.64233 9.80417 3.17149 9.41251 2.77983C9.02084 2.38816 8.55001 2.19233 8.00001 2.19233C7.45001 2.19233 6.97917 2.38816 6.58751 2.77983C6.19584 3.17149 6.00001 3.64233 6.00001 4.19233C6.00001 4.74233 6.19584 5.21316 6.58751 5.60483C6.97917 5.99649 7.45001 6.19233 8.00001 6.19233Z" fill="#1DA1F2"/>
</svg>
