<svg width="20" height="18" viewBox="0 0 20 18" fill="none" xmlns="http://www.w3.org/2000/svg">
<path d="M2.30773 17.5C1.8026 17.5 1.37503 17.325 1.02503 16.975C0.675031 16.625 0.500031 16.1974 0.500031 15.6923V5.30773C0.500031 4.80259 0.675031 4.37503 1.02503 4.02503C1.37503 3.67503 1.8026 3.50003 2.30773 3.50003H6.50003V1.80775C6.50003 1.30263 6.67503 0.875076 7.02503 0.525076C7.37503 0.175076 7.8026 7.62939e-05 8.30773 7.62939e-05H11.6923C12.1974 7.62939e-05 12.625 0.175076 12.975 0.525076C13.325 0.875076 13.5 1.30263 13.5 1.80775V3.50003H17.6923C18.1974 3.50003 18.625 3.67503 18.975 4.02503C19.325 4.37503 19.5 4.80259 19.5 5.30773V15.6923C19.5 16.1974 19.325 16.625 18.975 16.975C18.625 17.325 18.1974 17.5 17.6923 17.5H2.30773ZM2.30773 16H17.6923C17.7692 16 17.8397 15.968 17.9039 15.9039C17.968 15.8397 18 15.7692 18 15.6923V5.30773C18 5.23079 17.968 5.16027 17.9039 5.09615C17.8397 5.03205 17.7692 5 17.6923 5H2.30773C2.2308 5 2.16027 5.03205 2.09616 5.09615C2.03206 5.16027 2.00001 5.23079 2.00001 5.30773V15.6923C2.00001 15.7692 2.03206 15.8397 2.09616 15.9039C2.16027 15.968 2.2308 16 2.30773 16ZM8.00001 3.50003H12V1.80775C12 1.73082 11.968 1.6603 11.9039 1.5962C11.8397 1.53208 11.7692 1.50003 11.6923 1.50003H8.30773C8.2308 1.50003 8.16027 1.53208 8.09616 1.5962C8.03206 1.6603 8.00001 1.73082 8.00001 1.80775V3.50003Z" fill="#1DA1F2"/>
</svg>
